<svg xmlns="http://www.w3.org/2000/svg" viewBox="0 0 241.35 133.09"><defs><style>.cls-1,.cls-2{fill:#fff;}.cls-1{opacity:0.5;}</style></defs><g id="Layer_2" data-name="Layer 2"><g id="Layer_1-2" data-name="Layer 1"><rect class="cls-1" x="181.84" y="116.7" width="16.39" height="16.39" transform="translate(65.14 314.93) rotate(-90)"/><rect class="cls-1" x="169.75" y="87.53" width="16.39" height="16.39" transform="translate(82.22 273.66) rotate(-90)"/><rect class="cls-1" x="224.36" y="58.35" width="16.39" height="16.39" transform="translate(166.01 299.1) rotate(-90)"/><rect class="cls-1" x="196.31" y="29.18" width="16.39" height="16.39" transform="translate(167.13 241.87) rotate(-90)"/><polygon class="cls-2" points="241.35 16.39 241.35 0 0 0 0 5.15 0 16.39 0 29.18 0 34.33 0 74.74 0 87.53 0 133.09 41.32 133.09 51.23 133.09 52.49 133.09 156.93 133.09 166.84 133.09 166.84 116.7 156.93 116.7 52.49 116.7 52.49 103.92 154.53 103.92 154.53 87.53 98.73 87.53 98.73 74.74 209.09 74.74 209.09 58.35 70.6 58.35 70.6 45.56 181.27 45.56 181.27 29.18 106.11 29.18 106.11 16.39 241.35 16.39"/></g></g></svg>