<svg xmlns="http://www.w3.org/2000/svg" viewBox="0 0 1673.79 722.71"><defs><style>.cls-1,.cls-4{fill:#b8cad8;}.cls-2{fill:#bacbd9;}.cls-3{fill:#afffda;}.cls-4{opacity:0.49;}</style></defs><g id="Layer_2" data-name="Layer 2"><g id="Layer_1-2" data-name="Layer 1"><path class="cls-1" d="M270,722.71a70.53,70.53,0,0,1-27.24-5.15,64.7,64.7,0,0,1-21.65-14.46,65.7,65.7,0,0,1-14.23-21.73,75.22,75.22,0,0,1,0-54.09,65.7,65.7,0,0,1,14.23-21.73,64.87,64.87,0,0,1,21.65-14.47,74.45,74.45,0,0,1,50.57-1.39,67.54,67.54,0,0,1,19.42,10.46L310,603.67a56.47,56.47,0,0,0-18.09-9.87,68.08,68.08,0,0,0-21.62-3.39,65.24,65.24,0,0,0-25.68,4.91,60.66,60.66,0,0,0-20.1,13.62,61.68,61.68,0,0,0-13.1,20.34,69.91,69.91,0,0,0,0,50.09,61.53,61.53,0,0,0,13.1,20.33,60.68,60.68,0,0,0,20.1,13.63,65.41,65.41,0,0,0,25.68,4.91,67.8,67.8,0,0,0,21.62-3.4A56.45,56.45,0,0,0,310,705l2.72,3.51A67.32,67.32,0,0,1,293.33,719,70.54,70.54,0,0,1,270,722.71Z"/><path class="cls-1" d="M403,720.16V588.33h28.28q12.63,0,21.74,4.35A32.74,32.74,0,0,1,467,605q5,8,5,19.09a37.48,37.48,0,0,1-4.79,19.18,34.07,34.07,0,0,1-13.5,12.94,45.85,45.85,0,0,1-20.54,5.11l44.27,58.81h-5.76L427.4,661.35h-20v58.81ZM407.43,657h23.8A43.06,43.06,0,0,0,450.57,653a30.25,30.25,0,0,0,12.74-11.46,32.69,32.69,0,0,0,4.52-17.38q0-14.77-9.83-23.37t-26.77-8.59h-23.8Z"/><path class="cls-1" d="M567.22,720.16V588.33h62.64v4H571.69v59.77h56.25v4H571.69v60.08h58.17v4Z"/><path class="cls-1" d="M715.11,720.16,766.4,588.33h4.16l51.29,131.83h-4.79L798.2,671.42H738.76L719.9,720.16Zm25.17-52.73h56.4l-28.2-73.67Z"/><path class="cls-1" d="M940.58,720.16V592.8H896.47v-4.47h92.69v4.47H945.05V720.16Z"/><path class="cls-1" d="M1082.23,720.16V588.33h4.48V720.16Z"/><path class="cls-1" d="M1250.34,722.71a63.83,63.83,0,0,1-25.89-5.27,66,66,0,0,1-21.17-14.66,69.79,69.79,0,0,1,0-96.91,66.17,66.17,0,0,1,21.17-14.67,66.21,66.21,0,0,1,51.77,0,66.1,66.1,0,0,1,21.18,14.67,69.84,69.84,0,0,1,0,96.91,65.91,65.91,0,0,1-21.18,14.66A63.82,63.82,0,0,1,1250.34,722.71Zm0-4.31a58.79,58.79,0,0,0,24.05-4.95A61.28,61.28,0,0,0,1294,699.67a65.41,65.41,0,0,0,13.22-20.46,67,67,0,0,0,0-49.81A65.46,65.46,0,0,0,1294,609a61.13,61.13,0,0,0-19.61-13.78,60.8,60.8,0,0,0-48.06,0A60.9,60.9,0,0,0,1206.67,609a65.63,65.63,0,0,0-13.22,20.42,67.14,67.14,0,0,0,0,49.81,65.59,65.59,0,0,0,13.22,20.46,61.06,61.06,0,0,0,19.66,13.78A58.84,58.84,0,0,0,1250.34,718.4Z"/><path class="cls-1" d="M1414,720.16V588.33h4.48L1497.06,712V588.33h4.47V720.16h-4.47l-78.62-123.52V720.16Z"/><path class="cls-1" d="M1634.8,722.71q-10.79,0-18.5-3.63a44.43,44.43,0,0,1-12.74-8.71,46.39,46.39,0,0,1-7.63-9.71,37.56,37.56,0,0,1-3.15-6.55l3.51-1.92a38.84,38.84,0,0,0,3.2,6.44,44.47,44.47,0,0,0,7,8.86,38.91,38.91,0,0,0,11.54,7.83,39.55,39.55,0,0,0,16.74,3.24,42.55,42.55,0,0,0,17.26-3.47,29.92,29.92,0,0,0,12.74-10.39q4.83-6.91,4.84-17.14a28.43,28.43,0,0,0-3.24-14.14,29.49,29.49,0,0,0-8.67-9.63,60.1,60.1,0,0,0-12-6.59q-6.6-2.72-13.31-5-4.47-1.53-9.9-3.76a50,50,0,0,1-10.43-5.87,29.53,29.53,0,0,1-8.23-9.23q-3.24-5.6-3.23-13.9a33.87,33.87,0,0,1,2.51-13.11,33.25,33.25,0,0,1,7-10.66,32.27,32.27,0,0,1,10.75-7.19,35.18,35.18,0,0,1,13.66-2.6,34,34,0,0,1,25.25,10.39,31,31,0,0,1,6.15,8.95l-3.67,1.75a24.65,24.65,0,0,0-5.4-8,29.81,29.81,0,0,0-9.47-6.43,31.77,31.77,0,0,0-13-2.51q-9.59,0-16.26,4.39a28.81,28.81,0,0,0-10.1,11.19,30.63,30.63,0,0,0-3.44,14.06,22.39,22.39,0,0,0,2.84,11.7,25.85,25.85,0,0,0,7.35,8,48,48,0,0,0,9.7,5.32q5.21,2.12,10,3.71,6.87,2.33,13.78,5.23a61.91,61.91,0,0,1,12.71,7.2,32.46,32.46,0,0,1,9.31,10.7q3.51,6.44,3.51,15.78,0,11.34-5.35,19.26a34.29,34.29,0,0,1-14.18,12A45.58,45.58,0,0,1,1634.8,722.71Z"/><path class="cls-2" d="M201.07,214.37h73v29c31.29-35,67-37.24,84.92-37.24,58.09,0,82.67,29,92.36,42.46,11.91,17.13,19.36,38.73,19.36,87.14V528h-73V353.66c0-79.7-29.8-81.93-57.35-81.93-32.78,0-66.3,4.47-66.3,105.77V528h-73Z"/><path class="cls-2" d="M799.17,456.45c-13.41,23.83-32.77,44.69-52.88,57.35-25.33,16.39-58.85,23.84-92.37,23.84-41.71,0-76-10.43-105.76-40.22S502,424.42,502,377.5c0-48.42,17.13-95.34,49.9-128.86,26.07-26.07,60.33-42.46,105-42.46,49.91,0,81.94,21.6,100.56,41C797.68,288.86,801.4,347,801.4,379.73v8.94H576.46C578,411,587.63,436.34,603.28,452c17.13,17.13,38,20.11,55.86,20.11,20.11,0,35-4.47,49.9-15.64,12.67-9.68,22.35-22.35,29.05-34.26ZM726.92,329.08c-3-17.13-11.17-32-22.35-42.46-9.68-8.93-25.32-17.87-49.16-17.87-25.32,0-41.71,10.43-51.39,20.11-10.43,9.68-18.62,24.58-22.35,40.22Z"/><path class="cls-2" d="M832.69,214.37h73v28.31c8.19-9.68,20.11-20.11,30.54-26.07,14.15-8.19,28.3-10.43,44.69-10.43,17.88,0,37.24,3,57.35,14.9l-29.79,66.29c-16.39-10.43-29.8-11.17-37.24-11.17-15.65,0-31.29,2.23-45.44,17.13-20.11,21.6-20.11,51.39-20.11,72.25V528h-73Z"/><path class="cls-2" d="M1163.39,281.41V528h-73V281.41h-30.54v-67h30.54V99.67h73v114.7h55.86v67Z"/><path class="cls-2" d="M1275.11,37.85c26.81,0,46.92,20.11,46.92,46.92s-20.11,46.93-46.92,46.93-46.93-20.11-46.93-46.93S1248.29,37.85,1275.11,37.85Zm36.49,176.52V528h-73V214.37Z"/><path class="cls-2" d="M1588.67,214.37h73V528h-73V495.18c-32,37.24-71.5,42.46-93.85,42.46-96.83,0-151.94-80.45-151.94-166.85,0-102,70-164.61,152.69-164.61,23.09,0,63.31,6,93.1,44.69ZM1417.36,372.28c0,54.37,34.26,99.81,87.15,99.81,46.18,0,88.63-33.52,88.63-99.06,0-68.53-42.45-101.3-88.63-101.3C1451.62,271.73,1417.36,316.42,1417.36,372.28Z"/><path class="cls-3" d="M78.9,158.46A75.27,75.27,0,0,1,39.45,147.7a81.41,81.41,0,0,1-28.69-29A77,77,0,0,1,0,78.9Q0,56.74,10.76,39.13A83.24,83.24,0,0,1,39.45,10.76,75.27,75.27,0,0,1,78.9,0q22.17,0,39.78,10.76a84.23,84.23,0,0,1,28.37,28.37q10.75,17.59,10.76,39.77a77,77,0,0,1-10.76,39.78,82.36,82.36,0,0,1-28.37,29Q101.07,158.46,78.9,158.46Z"/><polygon class="cls-2" points="14.76 214.37 14.76 602.7 31.14 602.7 31.14 419.22 44.14 419.22 44.14 582.3 58.81 582.3 58.81 493.85 71.81 493.85 71.81 669.47 86.47 669.47 86.47 449.22 99.47 449.22 99.47 625.67 114.14 625.67 114.14 505.01 127.14 505.01 127.14 721.29 143.06 721.29 143.06 214.37 14.76 214.37"/><rect class="cls-4" x="14.75" y="617.59" width="16.16" height="16.16"/><rect class="cls-4" x="99.39" y="637.88" width="14.53" height="14.53"/><rect class="cls-4" x="71.64" y="681.13" width="14.53" height="14.53"/><rect class="cls-4" x="43.93" y="595.43" width="14.53" height="14.53"/></g></g></svg>