<svg xmlns="http://www.w3.org/2000/svg" viewBox="0 0 241.35 133.09"><defs><style>.cls-1,.cls-2{fill:#f9fbfc;}.cls-1{opacity:0.5;}</style></defs><g id="Layer_2" data-name="Layer 2"><g id="Layer_1-2" data-name="Layer 1"><rect class="cls-1" x="43.12" width="16.39" height="16.39" transform="translate(59.51 -43.12) rotate(90)"/><rect class="cls-1" x="55.21" y="29.18" width="16.39" height="16.39" transform="translate(100.78 -26.04) rotate(90)"/><rect class="cls-1" x="0.6" y="58.35" width="16.39" height="16.39" transform="translate(75.34 57.75) rotate(90)"/><rect class="cls-1" x="28.66" y="87.53" width="16.39" height="16.39" transform="translate(132.57 58.87) rotate(90)"/><polygon class="cls-2" points="0 116.7 0 133.09 241.35 133.09 241.35 127.94 241.35 116.7 241.35 103.92 241.35 98.76 241.35 58.35 241.35 45.56 241.35 0 200.03 0 190.12 0 188.86 0 84.43 0 74.51 0 74.51 16.39 84.43 16.39 188.86 16.39 188.86 29.18 86.82 29.18 86.82 45.56 142.62 45.56 142.62 58.35 32.26 58.35 32.26 74.74 170.75 74.74 170.75 87.53 60.08 87.53 60.08 103.92 135.24 103.92 135.24 116.7 0 116.7"/></g></g></svg>