<svg xmlns="http://www.w3.org/2000/svg" viewBox="0 0 241.35 133.09"><defs><style>.cls-1,.cls-2{fill:#f9fbfc;}.cls-1{opacity:0.5;}</style></defs><g id="Layer_2" data-name="Layer 2"><g id="Layer_1-2" data-name="Layer 1"><rect class="cls-1" x="181.84" width="16.39" height="16.39" transform="translate(198.23 -181.84) rotate(90)"/><rect class="cls-1" x="169.75" y="29.18" width="16.39" height="16.39" transform="translate(215.31 -140.57) rotate(90)"/><rect class="cls-1" x="224.36" y="58.35" width="16.39" height="16.39" transform="translate(299.1 -166.01) rotate(90)"/><rect class="cls-1" x="196.31" y="87.53" width="16.39" height="16.39" transform="translate(300.22 -108.78) rotate(90)"/><polygon class="cls-2" points="241.35 116.7 241.35 133.09 0 133.09 0 127.94 0 116.7 0 103.92 0 98.76 0 58.35 0 45.56 0 0 41.32 0 51.23 0 52.49 0 156.93 0 166.84 0 166.84 16.39 156.93 16.39 52.49 16.39 52.49 29.18 154.53 29.18 154.53 45.56 98.73 45.56 98.73 58.35 209.09 58.35 209.09 74.74 70.6 74.74 70.6 87.53 181.27 87.53 181.27 103.92 106.11 103.92 106.11 116.7 241.35 116.7"/></g></g></svg>